<svg width="420" height="110" viewBox="0 0 420 110" fill="none" xmlns="http://www.w3.org/2000/svg">
  <rect width="420" height="110" fill="white" fill-opacity="0"/>

  <g transform="translate(6 8)">
    <path d="M49 10C33 10 20 16 10 28C20 25 30 26 39 31C43 21 46 16 49 10Z" fill="#1392D8"/>
    <path d="M10 28C1 39 -2 52 1 67C7 58 16 52 27 49C24 39 18 33 10 28Z" fill="#194E9A"/>
    <path d="M1 67C4 81 13 91 27 98C24 89 26 79 31 70C20 67 10 66 1 67Z" fill="#1E79C8"/>
    <path d="M27 98C39 104 53 104 67 98C58 96 50 90 45 81C37 88 31 94 27 98Z" fill="#1976D2"/>
    <path d="M67 98C79 93 88 83 93 70C84 73 74 72 65 67C64 77 65 88 67 98Z" fill="#1B4B97"/>
    <path d="M93 70C98 57 97 43 92 30C88 40 81 47 72 51C80 60 88 66 93 70Z" fill="#F28C13"/>
    <path d="M92 30C85 18 75 10 61 7C67 14 70 23 69 34C79 34 87 32 92 30Z" fill="#F49B1D"/>
    <path d="M61 7C47 3 34 5 22 12C31 13 39 18 44 27C51 20 57 13 61 7Z" fill="#31A85A"/>

    <circle cx="12" cy="54" r="9.5" fill="#184F9B" stroke="white" stroke-width="2"/>
    <circle cx="46" cy="11" r="9.5" fill="#35B44B" stroke="white" stroke-width="2"/>
    <circle cx="98" cy="56" r="9.5" fill="#F2AE17" stroke="white" stroke-width="2"/>
    <circle cx="54" cy="96" r="9.5" fill="#2087DD" stroke="white" stroke-width="2"/>

    <path d="M61 27C54 24 45 24 39 28C30 33 25 42 25 52C30 45 37 40 45 39C46 35 49 31 53 28C55 27 58 27 61 27Z" fill="white"/>
    <path d="M44 39C52 36 61 38 68 43C75 48 78 56 77 64C73 57 67 52 59 50C55 54 50 57 44 58C39 58 34 57 29 54C32 47 37 42 44 39Z" fill="white"/>
    <path d="M44 58C49 58 55 56 59 50C63 51 68 54 72 58C70 67 64 75 56 79C47 83 38 82 30 77C37 76 43 72 47 66C45 64 44 61 44 58Z" fill="white"/>
  </g>

  <text x="118" y="60" fill="#163D78" font-family="'Plus Jakarta Sans', 'Segoe UI', sans-serif" font-size="46" font-weight="800" letter-spacing="-1.5">Elsati</text>
  <text x="235" y="60" fill="#2FA34A" font-family="'Plus Jakarta Sans', 'Segoe UI', sans-serif" font-size="46" font-weight="700" letter-spacing="-1.3">Connect</text>
</svg>
